<svg width="157" height="32" viewBox="0 0 157 32" fill="none" xmlns="http://www.w3.org/2000/svg">
<g clip-path="url(#clip0_341_89)">
<path d="M15.9472 14.0344C15.3665 14.0344 13.9779 14.1091 12.5234 14.9149C11.695 15.3735 11.2348 15.854 10.4349 16.6758C6.52363 20.6907 5.77252 21.2758 4.94187 22.9758C4.36007 24.1666 4.23394 24.8942 4.18735 25.3436C3.99531 27.216 4.75665 28.6298 4.92255 28.9241C5.93047 30.7172 7.53951 31.3976 8.03608 31.585C8.16448 31.6333 10.403 32.4402 12.4268 31.5068C12.9189 31.2804 13.5711 30.8701 13.7416 30.7632C15.212 29.8402 15.2222 29.5114 15.7529 29.4724C15.9926 29.454 16.1244 29.5126 18.3062 30.8815C18.9789 31.3034 19.1652 31.4229 19.505 31.5666C19.505 31.5666 20.3993 31.9436 21.4197 31.9965C22.6106 32.0586 24.9457 31.6459 26.4684 29.6091C27.9001 27.6942 27.8683 25.3402 27.2615 23.7597C27.1047 23.3528 26.874 22.9988 26.4104 22.2919C25.2616 20.5379 24.5298 20.0114 21.8072 17.0678C20.6618 15.8298 20.6027 15.7183 20.2016 15.4241C18.3516 14.0666 16.3574 14.0344 15.946 14.0344H15.9472Z" fill="#BE3455"/>
<path d="M5.96118 16.1476C8.00049 15.3677 8.83166 12.5362 7.81764 9.82313C6.80363 7.1101 4.32841 5.54298 2.2891 6.32287C0.249786 7.10276 -0.581381 9.93433 0.432636 12.6474C1.44665 15.3604 3.92187 16.9275 5.96118 16.1476Z" fill="#BE3455"/>
<path d="M31.5217 12.7223C32.5884 10.03 31.8126 7.18244 29.7889 6.36202C27.7651 5.5416 25.2599 7.05904 24.1931 9.75131C23.1264 12.4436 23.9022 15.2912 25.9259 16.1116C27.9497 16.932 30.4549 15.4146 31.5217 12.7223Z" fill="#BE3455"/>
<path d="M12.1586 10.4345C14.3152 10.1108 15.7223 7.52258 15.3014 4.65354C14.8806 1.78451 12.7912 -0.278907 10.6346 0.044777C8.478 0.368461 7.07092 2.95667 7.49177 5.82571C7.91263 8.69474 10.0021 10.7582 12.1586 10.4345Z" fill="#BE3455"/>
<path d="M24.3419 5.66689C24.6486 2.78309 23.14 0.25408 20.9723 0.0182014C18.8046 -0.217677 16.7987 1.9289 16.492 4.8127C16.1853 7.69651 17.694 10.2255 19.8617 10.4614C22.0293 10.6973 24.0352 8.5507 24.3419 5.66689Z" fill="#BE3455"/>
</g>
<path d="M68.6985 24V9.8H74.8185C75.5118 9.8 76.1518 9.94 76.7385 10.22C77.3252 10.5 77.8318 10.88 78.2585 11.36C78.6852 11.8267 79.0118 12.3533 79.2385 12.94C79.4785 13.5267 79.5985 14.12 79.5985 14.72C79.5985 15.56 79.3985 16.3533 78.9985 17.1C78.6118 17.8467 78.0652 18.46 77.3585 18.94C76.6652 19.4067 75.8518 19.64 74.9185 19.64H72.5985V24H68.6985ZM72.5985 16.24H74.6585C74.8185 16.24 74.9718 16.1933 75.1185 16.1C75.2652 16.0067 75.3852 15.8467 75.4785 15.62C75.5852 15.3933 75.6385 15.0933 75.6385 14.72C75.6385 14.32 75.5785 14.0133 75.4585 13.8C75.3518 13.5733 75.2118 13.42 75.0385 13.34C74.8785 13.2467 74.7185 13.2 74.5585 13.2H72.5985V16.24ZM91.2795 20.6V24H81.1595V9.8H91.0995V13.2H85.0595V15.2H90.2195V18.36H85.0595V20.6H91.2795ZM104.153 13.2H100.073V24H96.173V13.2H92.073V9.8H104.153V13.2ZM119.619 20.6V24H109.499V9.8H119.439V13.2H113.399V15.2H118.559V18.36H113.399V20.6H119.619ZM124.053 13.48L125.553 16.06L125.753 16.48L125.953 16.06L127.453 13.48H131.313L127.933 18.68L131.413 24H127.553L125.933 21.42L125.753 21.02L125.573 21.42L123.953 24H120.093L123.573 18.78L120.193 13.48H124.053ZM139.327 24.2C138.567 24.2 137.907 24.0533 137.347 23.76C136.787 23.4533 136.354 23.0133 136.047 22.44V28.26H132.247V13.48H135.547V15.06C135.92 14.4867 136.38 14.0467 136.927 13.74C137.487 13.4333 138.16 13.28 138.947 13.28C139.654 13.28 140.3 13.4133 140.887 13.68C141.474 13.9467 141.987 14.3267 142.427 14.82C142.867 15.3133 143.207 15.8867 143.447 16.54C143.687 17.1933 143.807 17.9133 143.807 18.7C143.807 19.7533 143.614 20.6933 143.227 21.52C142.84 22.3467 142.307 23 141.627 23.48C140.96 23.96 140.194 24.2 139.327 24.2ZM138.007 21C138.287 21 138.54 20.94 138.767 20.82C139.007 20.7 139.214 20.5333 139.387 20.32C139.56 20.1067 139.694 19.86 139.787 19.58C139.88 19.3 139.927 19 139.927 18.68C139.927 18.3467 139.874 18.0467 139.767 17.78C139.674 17.5133 139.534 17.2867 139.347 17.1C139.16 16.9 138.94 16.7467 138.687 16.64C138.434 16.5333 138.154 16.48 137.847 16.48C137.674 16.48 137.5 16.5067 137.327 16.56C137.167 16.6 137.014 16.6667 136.867 16.76C136.72 16.84 136.574 16.9467 136.427 17.08C136.294 17.2133 136.167 17.3733 136.047 17.56V19.38C136.167 19.6867 136.327 19.9667 136.527 20.22C136.74 20.46 136.974 20.6533 137.227 20.8C137.48 20.9333 137.74 21 138.007 21ZM150.376 24.2C149.443 24.2 148.616 24.0533 147.896 23.76C147.176 23.4667 146.57 23.0667 146.076 22.56C145.596 22.04 145.23 21.4533 144.976 20.8C144.736 20.1467 144.616 19.46 144.616 18.74C144.616 18.02 144.736 17.3333 144.976 16.68C145.23 16.0133 145.596 15.4267 146.076 14.92C146.57 14.4133 147.176 14.0133 147.896 13.72C148.616 13.4267 149.443 13.28 150.376 13.28C151.323 13.28 152.15 13.4267 152.856 13.72C153.576 14.0133 154.176 14.4133 154.656 14.92C155.15 15.4267 155.516 16.0133 155.756 16.68C156.01 17.3333 156.136 18.02 156.136 18.74C156.136 19.46 156.01 20.1467 155.756 20.8C155.516 21.4533 155.15 22.04 154.656 22.56C154.176 23.0667 153.576 23.4667 152.856 23.76C152.15 24.0533 151.323 24.2 150.376 24.2ZM148.516 18.74C148.516 19.2067 148.596 19.6133 148.756 19.96C148.916 20.2933 149.136 20.5533 149.416 20.74C149.696 20.9133 150.016 21 150.376 21C150.736 21 151.056 20.9133 151.336 20.74C151.616 20.5533 151.836 20.2933 151.996 19.96C152.156 19.6133 152.236 19.2067 152.236 18.74C152.236 18.2733 152.156 17.8733 151.996 17.54C151.836 17.1933 151.616 16.9333 151.336 16.76C151.056 16.5733 150.736 16.48 150.376 16.48C150.016 16.48 149.696 16.5733 149.416 16.76C149.136 16.9333 148.916 17.1933 148.756 17.54C148.596 17.8733 148.516 18.2733 148.516 18.74Z" fill="#BE3455"/>
<defs>
<clipPath id="clip0_341_89">
<rect width="32" height="32" fill="white"/>
</clipPath>
</defs>
</svg>
